Coordinates
version=1
nRows=17
nColumns=40
inDegrees=yes

Units are S.I. units (second, meters, Newtons, ...)
Angles are in degrees.

endheader
time	pelvis_tilt	pelvis_list	pelvis_rotation	pelvis_tx	pelvis_ty	pelvis_tz	hip_flexion_r	hip_adduction_r	hip_rotation_r	knee_angle_r	knee_angle_r_beta	ankle_angle_r	subtalar_angle_r	mtp_angle_r	hip_flexion_l	hip_adduction_l	hip_rotation_l	knee_angle_l	knee_angle_l_beta	ankle_angle_l	subtalar_angle_l	mtp_angle_l	lumbar_extension	lumbar_bending	lumbar_rotation	arm_flex_r	arm_add_r	arm_rot_r	elbow_flex_r	pro_sup_r	wrist_flex_r	wrist_dev_r	arm_flex_l	arm_add_l	arm_rot_l	elbow_flex_l	pro_sup_l	wrist_flex_l	wrist_dev_l
     53.01000000	     -3.83869352	     -4.82145269	     -2.60359093	      1.03256926	      0.92866843	      0.45377038	     25.55571555	     -3.00523746	    -10.92934094	     17.43156858	     17.43156858	      5.53327480	      4.11862260	      3.79045383	      5.56189966	     -7.67067466	    -10.16944642	     17.88667259	     17.88667259	     15.89991742	    -10.93833307	     -3.08717324	    -10.53318904	      5.29561447	      1.45900956	     -0.36701568	    -15.22645512	    -11.27059258	     26.28790495	     47.53317077	      0.00000000	      0.00000000	     10.66187652	    -18.58173048	      4.83508548	     58.59335440	     45.74668876	      0.00000000	      0.00000000
     53.02271429	     -3.80901086	     -4.75662374	     -2.63831390	      1.03401160	      0.92791934	      0.45633294	     25.00653491	     -2.72159086	    -11.76333141	     17.22029981	     17.22029981	      5.38634632	      4.16125604	      3.70912727	      4.81384594	     -7.72321738	    -10.34814240	     17.45690231	     17.45690231	     16.16580947	    -10.68102506	     -3.13351605	    -10.32854553	      5.21978748	      1.52367098	     -0.59357203	    -15.00071687	    -11.48804204	     26.24793943	     47.53603371	      0.00000000	      0.00000000	     10.68724975	    -18.40958985	      4.76214717	     59.18673973	     45.77578355	      0.00000000	      0.00000000
     53.03542857	     -3.84105068	     -4.70147189	     -2.61184431	      1.03560993	      0.92689495	      0.45896474	     24.58667127	     -2.48037199	    -12.54473112	     17.34575131	     17.34575131	      5.26557403	      3.98936548	      3.56332260	      4.21763711	     -7.80480275	    -10.42097777	     17.18965280	     17.18965280	     16.50600561	    -10.50608790	     -3.18947810	    -10.02114369	      5.17378112	      1.49068208	     -0.76922216	    -14.73628208	    -11.56514518	     26.25693756	     47.53331630	      0.00000000	      0.00000000	     10.69981818	    -18.24227960	      4.73689168	     59.55455544	     45.78931390	      0.00000000	      0.00000000
     53.04814286	     -3.69118481	     -4.62700403	     -2.64014328	      1.03759954	      0.92618874	      0.46175721	     23.87356134	     -2.26929809	    -13.28211803	     17.42959037	     17.42959037	      5.02515596	      4.10492710	      2.98368401	      3.28029930	     -7.87330567	    -10.72264576	     16.73009280	     16.73009280	     16.86376612	     -9.94170604	     -3.09478203	     -9.89672177	      5.06238582	      1.64757304	     -0.98239513	    -14.55620536	    -11.78101475	     26.43308995	     47.52662803	      0.00000000	      0.00000000	     10.55412512	    -18.03543495	      4.58657189	     60.41898223	     45.82580889	      0.00000000	      0.00000000
     53.06085714	     -3.57596420	     -4.58089231	     -2.60913022	      1.03969247	      0.92531722	      0.46452968	     23.16810331	     -2.04648153	    -13.85885570	     17.48200069	     17.48200069	      4.37821012	      3.99421833	      1.25095640	      2.52235641	     -8.02503951	    -11.09642252	     16.56712277	     16.56712277	     17.59055025	     -9.13571381	     -2.58883088	     -9.73482105	      5.04779611	      1.61977334	     -1.23391295	    -14.21281690	    -12.26118795	     27.07492119	     47.49804773	      0.00000000	      0.00000000	     10.04311267	    -17.86007695	      4.12168639	     61.88179555	     45.91311580	      0.00000000	      0.00000000
     53.07357143	     -3.57224831	     -4.62537386	     -2.55407629	      1.04165218	      0.92433979	      0.46742423	     22.70994111	     -1.75543735	    -14.18548990	     17.80429982	     17.80429982	      4.33646259	      3.73760564	      1.05510582	      2.03755723	     -8.26055751	    -11.04701432	     16.60830716	     16.60830716	     17.86909351	     -9.18349715	     -2.55662184	     -9.39124612	      5.15294959	      1.61130331	     -1.21712793	    -13.96141707	    -12.25819238	     27.13066949	     47.49148246	      0.00000000	      0.00000000	      9.92543648	    -17.59922018	      4.15202941	     61.95705641	     45.91435355	      0.00000000	      0.00000000
     53.08628571	     -3.41655079	     -4.68455781	     -2.54310615	      1.04371322	      0.92363891	      0.47050308	     21.98135395	     -1.35565008	    -14.08596686	     17.75381731	     17.75381731	      3.14109222	      2.82566847	     -2.54054982	      1.57767411	     -8.63035694	    -11.38234154	     17.16511783	     17.16511783	     19.27745225	     -8.24590941	     -0.34433352	     -9.31490084	      5.25009121	      1.52722835	     -1.30412290	    -13.73480141	    -12.67465803	     28.09870186	     47.40247991	      0.00000000	      0.00000000	      9.33483120	    -17.18655797	      2.93348066	     63.06349447	     46.09226677	      0.00000000	      0.00000000
     53.09900000	     -3.34234257	     -4.73689040	     -2.55070899	      1.04567108	      0.92310595	      0.47356724	     21.51490428	     -1.08041663	    -14.10932097	     18.09209588	     18.09209588	      3.35538854	      2.72292940	     -2.71239466	      1.12564092	     -8.90094227	    -11.34775352	     17.40895681	     17.40895681	     19.40336460	     -8.43003472	     -0.33593858	     -9.07619072	      5.34280522	      1.65988131	     -1.15142747	    -13.49068944	    -12.63060075	     28.14712822	     47.39540298	      0.00000000	      0.00000000	      9.18887536	    -16.86910509	      3.00994608	     63.06983988	     46.08770151	      0.00000000	      0.00000000
     53.11171429	     -3.12008978	     -4.89457623	     -2.52435798	      1.04733931	      0.92283377	      0.47668727	     21.06433632	     -0.73166035	    -13.89337367	     18.68120201	     18.68120201	      3.58671984	      2.29054517	     -3.13076090	      0.89427847	     -9.36572835	    -11.14875946	     18.33793099	     18.33793099	     19.58912572	     -8.86951367	     -0.18302314	     -9.13718795	      5.57964732	      1.92455167	     -0.91808001	    -13.41308905	    -12.57698244	     28.25381300	     47.37961552	      0.00000000	      0.00000000	      9.16753798	    -16.47117107	      2.88171886	     63.19116651	     46.10712963	      0.00000000	      0.00000000
     53.12442857	     -3.04295480	     -5.02727411	     -2.52775289	      1.04883579	      0.92262987	      0.47999012	     20.69392223	     -0.30732034	    -13.39272235	     18.96912616	     18.96912616	      3.34739268	      1.26970400	     -4.82924745	      1.12652989	     -9.89687002	    -10.97657916	     19.87398053	     19.87398053	     20.36297080	     -9.10213938	      1.49707308	     -9.01915880	      5.73958950	      1.94022718	     -0.59715469	    -13.26976945	    -11.95893270	     28.76141885	     47.20559551	      0.00000000	      0.00000000	      8.72531722	    -15.79005358	      1.53522118	     63.44796420	     46.29975618	      0.00000000	      0.00000000
     53.13714286	     -2.87706851	     -5.18957946	     -2.50443230	      1.05015313	      0.92277351	      0.48328190	     20.29614263	      0.05991996	    -13.10772612	     19.41738715	     19.41738715	      3.80713717	      0.88255365	     -5.03684268	      1.41908860	    -10.45735383	    -10.58449716	     21.57320013	     21.57320013	     20.18008012	     -9.96417104	      1.33410440	     -9.03759879	      5.93347007	      2.16737018	     -0.16835151	    -13.13726712	    -11.85174515	     28.95294924	     47.18199864	      0.00000000	      0.00000000	      8.56377746	    -15.41059269	      1.47750306	     63.42565393	     46.31160889	      0.00000000	      0.00000000
     53.14985714	     -2.68705447	     -5.33260111	     -2.45578889	      1.05128453	      0.92313003	      0.48659103	     19.86688406	      0.40576866	    -12.81316231	     19.81547622	     19.81547622	      4.30523301	      0.46949224	     -5.21980191	      1.96885110	    -11.03792548	    -10.06010308	     23.73317838	     23.73317838	     19.79374512	    -11.01119049	      1.08512689	     -9.10658733	      6.14766619	      2.38640439	      0.37360977	    -12.99947825	    -11.72756468	     29.23227967	     47.15577129	      0.00000000	      0.00000000	      8.39274004	    -15.04515365	      1.31647564	     63.36289565	     46.32937731	      0.00000000	      0.00000000
     53.16257143	     -2.48466253	     -5.50896693	     -2.38393092	      1.05219134	      0.92360519	      0.49002036	     19.39651787	      0.79799681	    -12.57458462	     20.12900281	     20.12900281	      4.85790906	      0.11568127	     -5.38325732	      2.80739148	    -11.70162915	     -9.40036359	     26.38398834	     26.38398834	     19.18131314	    -12.24692349	      0.71914648	     -9.21803044	      6.26753415	      2.54380833	      0.99844079	    -12.88334320	    -11.58536373	     29.57817012	     47.12708656	      0.00000000	      0.00000000	      8.23219891	    -14.67090895	      1.10795672	     63.27305385	     46.34957159	      0.00000000	      0.00000000
     53.17528571	     -2.40556628	     -5.63261573	     -2.27656945	      1.05279836	      0.92401089	      0.49333198	     19.02625458	      1.13454004	    -12.37495238	     20.34069437	     20.34069437	      5.38029055	     -0.26614148	     -5.47346977	      4.07951868	    -12.30591127	     -8.54947195	     29.45783301	     29.45783301	     18.22362289	    -13.72563358	      0.19085125	     -9.18627220	      6.38408911	      2.60920670	      1.64711897	    -12.75052434	    -11.33724902	     30.05436702	     47.08149145	      0.00000000	      0.00000000	      7.93328286	    -14.25660178	      0.71946801	     63.11518118	     46.38423985	      0.00000000	      0.00000000
     53.18800000	     -2.23086695	     -5.74381177	     -2.12240561	      1.05323346	      0.92455641	      0.49653343	     18.56596275	      1.43160754	    -12.28152964	     20.57707679	     20.57707679	      5.95922148	     -0.58787580	     -5.42975703	      5.43198301	    -12.86045759	     -7.54903637	     32.73606013	     32.73606013	     16.69153557	    -15.46790321	     -0.96130036	     -9.30758832	      6.47344260	      2.44989086	      2.38207308	    -12.72853340	    -10.34365710	     31.02901560	     46.93425104	      0.00000000	      0.00000000	      7.54378139	    -13.71526732	     -0.59322313	     62.99739775	     46.50920317	      0.00000000	      0.00000000
     53.20071429	     -2.03324883	     -5.94358852	     -1.92534942	      1.05357276	      0.92512637	      0.49968513	     17.91794805	      1.79750343	    -12.49089874	     20.52508441	     20.52508441	      6.47014293	     -0.43756741	     -5.56970884	      7.00459902	    -13.57679584	     -6.63822721	     36.41087729	     36.41087729	     15.45177780	    -16.50109331	     -1.29038588	     -9.44216732	      6.65063044	      2.62083979	      3.15377276	    -12.70229016	    -10.07356848	     31.45591925	     46.89491743	      0.00000000	      0.00000000	      7.36188910	    -13.41362840	     -0.64019246	     62.89527211	     46.51606762	      0.00000000	      0.00000000
     53.21342857	     -1.85195487	     -6.10269297	     -1.70798701	      1.05372074	      0.92558778	      0.50266421	     17.31774703	      2.10370488	    -12.73398836	     20.50802961	     20.50802961	      6.94687301	     -0.29907581	     -5.70973635	      8.73601348	    -14.19463595	     -5.62923174	     40.19835878	     40.19835878	     14.08233645	    -17.41765729	     -1.36831143	     -9.56311053	      6.76876200	      2.72049998	      3.99601016	    -12.69018860	     -9.80101542	     32.01695249	     46.85182998	      0.00000000	      0.00000000	      7.16733957	    -13.16804592	     -0.71646778	     62.72258450	     46.52315475	      0.00000000	      0.00000000
